<svg xmlns="http://www.w3.org/2000/svg" viewBox="0 0 128 128" role="img" aria-labelledby="title desc">
  <title id="title">X Popular Link Filter Icon</title>
  <desc id="desc">A dark, premium icon with a metallic X and an electric scan accent.</desc>
  <defs>
    <linearGradient id="bg" x1="14%" y1="8%" x2="88%" y2="100%">
      <stop offset="0%" stop-color="#111827" />
      <stop offset="45%" stop-color="#0b1020" />
      <stop offset="100%" stop-color="#020617" />
    </linearGradient>
    <radialGradient id="glow" cx="26%" cy="18%" r="80%">
      <stop offset="0%" stop-color="#22d3ee" stop-opacity="0.34" />
      <stop offset="42%" stop-color="#38bdf8" stop-opacity="0.12" />
      <stop offset="100%" stop-color="#0f172a" stop-opacity="0" />
    </radialGradient>
    <linearGradient id="metal" x1="22%" y1="10%" x2="78%" y2="92%">
      <stop offset="0%" stop-color="#f8fafc" />
      <stop offset="38%" stop-color="#dbe4f0" />
      <stop offset="100%" stop-color="#94a3b8" />
    </linearGradient>
    <linearGradient id="accent" x1="10%" y1="50%" x2="90%" y2="50%">
      <stop offset="0%" stop-color="#67e8f9" />
      <stop offset="100%" stop-color="#22c55e" />
    </linearGradient>
    <filter id="shadow" x="-20%" y="-20%" width="140%" height="140%">
      <feDropShadow dx="0" dy="6" stdDeviation="8" flood-color="#020617" flood-opacity="0.45" />
    </filter>
  </defs>

  <rect x="6" y="6" width="116" height="116" rx="30" fill="url(#bg)" />
  <rect x="8" y="8" width="112" height="112" rx="28" fill="url(#glow)" />
  <rect x="8" y="8" width="112" height="112" rx="28" fill="none" stroke="#ffffff" stroke-opacity="0.1" />

  <path
    d="M33 26h17l14 21 14-21h17L74 58l23 44H81L64 75 47 102H31l23-44-21-32Z"
    fill="url(#metal)"
    filter="url(#shadow)"
  />

  <rect
    x="19"
    y="58"
    width="90"
    height="12"
    rx="6"
    transform="rotate(-18 64 64)"
    fill="url(#accent)"
    opacity="0.95"
  />

  <path
    d="M90 22h16l-11 15v13l-8 5V37L76 22Z"
    fill="#06131d"
    opacity="0.96"
  />
</svg>
